# xmcd CD database file
#
# Track frame offsets:
#	182
#	29365
#	62607
#	84262
#	101255
#	129910
#	148687
#	176267
#	202382
#	224862
#
# Disc length: 3209 seconds
#
# Revision: 0
# Processed by: cddbd v1.4PL0 Copyright (c) Steve Scherf et al.
# Submitted via: CDex 1.50
#
DISCID=8e0c870a
DTITLE=Bill Evans - Live in Europe vol. 2
DYEAR=1974
DGENRE=Jazz
TTITLE0=Up with the lark
TTITLE1=34 skidoo
TTITLE2=Quiet now
TTITLE3=Twelve Tone Tune
TTITLE4=Midnight mood
TTITLE5=Sugar plum
TTITLE6=If you could see me now
TTITLE7=The two lonely people
TTITLE8=Waltz for Debby
TTITLE9=Goodbye
EXTD=YEAR: 1974
EXTT0=
EXTT1=
EXTT2=
EXTT3=
EXTT4=
EXTT5=
EXTT6=
EXTT7=
EXTT8=
EXTT9=
PLAYORDER=
